<?xml version="1.0" encoding="iso-8859-1"?>
<!-- Generator: Adobe Illustrator 19.0.0, SVG Export Plug-In . SVG Version: 6.00 Build 0)  -->
<svg version="1.1" id="Layer_1" xmlns="http://www.w3.org/2000/svg" xmlns:xlink="http://www.w3.org/1999/xlink" x="0px" y="0px"
	 viewBox="0 0 512 512" style="enable-background:new 0 0 512 512;" xml:space="preserve">
<path style="fill:#B3404A;" d="M209.146,512h-94.144c-7.775,0-14.078-6.303-14.078-14.078V188.208
	c0-7.775,6.303-14.078,14.078-14.078h94.144c7.775,0,14.078,6.303,14.078,14.078v309.712C223.224,505.696,216.921,512,209.146,512z
	 M129.08,483.844h65.988V202.286H129.08V483.844z"/>
<rect x="209.145" y="188.21" style="fill:#F4B2B0;" width="94.143" height="309.718"/>
<g>
	<path style="fill:#B3404A;" d="M303.289,512h-94.143c-7.775,0-14.078-6.303-14.078-14.078V188.208
		c0-7.775,6.303-14.078,14.078-14.078h94.143c7.775,0,14.078,6.303,14.078,14.078v309.712C317.367,505.696,311.064,512,303.289,512z
		 M223.224,483.844h65.987V202.286h-65.987V483.844z"/>
	<path style="fill:#B3404A;" d="M396.998,512h-94.144c-7.775,0-14.078-6.303-14.078-14.078V188.208
		c0-7.775,6.303-14.078,14.078-14.078c7.775,0,14.078,6.303,14.078,14.078v295.634h65.988V274.302
		c0-7.775,6.303-14.078,14.078-14.078c7.775,0,14.078,6.303,14.078,14.078v223.62C411.076,505.696,404.774,512,396.998,512z"/>
	<path style="fill:#B3404A;" d="M337.655,57.714c-7.775,0-14.078-6.303-14.078-14.078v-15.48H188.425v15.48
		c0,7.775-6.303,14.078-14.078,14.078s-14.078-6.303-14.078-14.078V14.078C160.268,6.303,166.571,0,174.346,0h163.309
		c7.775,0,14.078,6.303,14.078,14.078v29.558C351.733,51.412,345.43,57.714,337.655,57.714z"/>
</g>
<rect x="83.667" y="98.542" style="fill:#F4B2B0;" width="344.674" height="90.635"/>
<path style="fill:#B3404A;" d="M428.339,203.252H83.661c-7.775,0-14.078-6.303-14.078-14.078V98.542
	c0-7.775,6.303-14.078,14.078-14.078h344.678c7.775,0,14.078,6.303,14.078,14.078v90.632
	C442.417,196.949,436.114,203.252,428.339,203.252z M97.739,175.096h316.522V112.62H97.739V175.096z"/>
<g>
</g>
<g>
</g>
<g>
</g>
<g>
</g>
<g>
</g>
<g>
</g>
<g>
</g>
<g>
</g>
<g>
</g>
<g>
</g>
<g>
</g>
<g>
</g>
<g>
</g>
<g>
</g>
<g>
</g>
</svg>
